<svg width="456" height="527" viewBox="0 0 456 527" fill="none" xmlns="http://www.w3.org/2000/svg">
<path d="M203.366 15.3644C218.837 6.43278 237.896 6.43278 253.366 15.3644L430.763 117.784C446.233 126.716 455.763 143.222 455.763 161.086V365.93C455.763 383.794 446.232 400.3 430.762 409.232L253.365 511.645C237.896 520.576 218.837 520.576 203.368 511.645L25.9712 409.232C10.5004 400.3 0.969971 383.794 0.969971 365.93V161.086C0.969971 143.222 10.4999 126.716 25.97 117.784L203.366 15.3644Z" fill="url(#paint0_radial_705_124)"/>
<path d="M272.794 102.147H240.63C238.228 102.147 236.045 103.676 235.245 105.932L131.765 389.518C131.11 391.41 132.493 393.375 134.457 393.375H166.622C169.023 393.375 171.207 391.847 172.007 389.591L275.487 106.004C276.141 104.112 274.759 102.147 272.794 102.147ZM216.543 102.147H184.378C181.977 102.147 179.793 103.676 178.993 105.932L75.5135 389.518C74.8585 391.41 76.2412 393.375 78.206 393.375H110.37C112.772 393.375 114.955 391.847 115.755 389.591L219.235 106.004C219.89 104.112 218.507 102.147 216.543 102.147ZM258.167 212.104C257.221 209.557 253.655 209.557 252.782 212.104L236.045 257.949C235.608 259.186 235.608 260.641 236.045 261.879L282.618 389.591C283.419 391.847 285.602 393.375 288.003 393.375H320.168C322.132 393.375 323.515 391.41 322.86 389.518L258.167 212.104ZM379.184 389.518L286.329 135.04C285.383 132.493 281.818 132.493 280.944 135.04L264.207 180.885C263.771 182.122 263.771 183.578 264.207 184.815L338.942 389.663C339.743 391.919 341.926 393.447 344.327 393.447H376.492C378.457 393.375 379.839 391.41 379.184 389.518Z" fill="url(#paint1_radial_705_124)"/>
<path d="M258.167 212.103C257.221 209.556 253.655 209.556 252.782 212.103L236.045 257.948C235.608 259.185 235.608 260.641 236.045 261.878L282.618 389.59C283.418 391.846 285.602 393.374 288.003 393.374H320.168C322.132 393.374 323.515 391.409 322.86 389.517L258.167 212.103ZM379.184 389.517L286.329 135.039C285.383 132.492 281.817 132.492 280.944 135.039L264.207 180.884C263.77 182.122 263.77 183.577 264.207 184.814L338.942 389.663C339.743 391.919 341.926 393.447 344.327 393.447H376.492C378.457 393.374 379.839 391.409 379.184 389.517Z" fill="url(#paint2_linear_705_124)"/>
<defs>
<radialGradient id="paint0_radial_705_124" cx="0" cy="0" r="1" gradientUnits="userSpaceOnUse" gradientTransform="translate(287.863 130.754) rotate(114.211) scale(516.889 447.642)">
<stop stop-color="white"/>
<stop offset="1" stop-color="#586987"/>
</radialGradient>
<radialGradient id="paint1_radial_705_124" cx="0" cy="0" r="1" gradientUnits="userSpaceOnUse" gradientTransform="translate(164.862 433.062) rotate(-70.2239) scale(633.929 661.566)">
<stop stop-color="#2E3A4F"/>
<stop offset="1" stop-color="#259DE6"/>
</radialGradient>
<linearGradient id="paint2_linear_705_124" x1="307.533" y1="133.129" x2="254.803" y2="398.41" gradientUnits="userSpaceOnUse">
<stop stop-color="#24A2EE" stop-opacity="0.5"/>
<stop offset="0.9999" stop-color="#38465F"/>
</linearGradient>
</defs>
</svg>
