<svg width="456" height="526" viewBox="0 0 456 526" fill="none" xmlns="http://www.w3.org/2000/svg">
<path d="M202.636 14.963C218.106 6.03141 237.166 6.03141 252.636 14.963L430.032 117.383C445.502 126.315 455.032 142.821 455.032 160.684V365.529C455.032 383.392 445.502 399.899 430.031 408.831L252.635 511.244C237.165 520.175 218.106 520.174 202.637 511.244L25.2405 408.831C9.76972 399.899 0.239258 383.392 0.239258 365.529V160.684C0.239258 142.821 9.76921 126.315 25.2393 117.383L202.636 14.963Z" fill="url(#paint0_radial_713_81)"/>
<path d="M162.072 285.124C171.583 285.124 180.332 281.919 187.351 276.528L129.366 218.543C123.924 225.511 120.771 234.311 120.771 243.822C120.771 266.558 139.285 285.124 162.072 285.124Z" fill="url(#paint1_radial_713_81)"/>
<path d="M334.451 243.771C334.451 234.26 331.246 225.511 325.855 218.492L267.87 276.426C274.838 281.868 283.638 285.022 293.149 285.022C315.936 285.124 334.451 266.558 334.451 243.771Z" fill="url(#paint2_radial_713_81)"/>
<path d="M363.645 180.656L338.01 206.292C346.504 216.464 351.591 229.485 351.591 243.727C351.591 275.975 325.345 302.221 293.097 302.221C278.906 302.221 265.834 297.083 255.662 288.64L227.585 316.717L199.508 288.64C189.335 297.134 176.314 302.221 162.072 302.221C129.825 302.221 103.579 275.975 103.579 243.727C103.579 229.536 108.716 216.464 117.16 206.292L104.037 193.169L91.5753 180.707C77.0283 204.766 68.6357 232.944 68.6357 263.106C68.6357 350.897 139.794 422.106 227.636 422.106C315.477 422.106 386.636 350.948 386.636 263.106C386.585 232.893 378.192 204.766 363.645 180.656Z" fill="url(#paint3_radial_713_81)"/>
<path d="M342.587 153.336C313.697 123.021 272.802 104.1 227.584 104.1C182.367 104.1 141.472 123.021 112.582 153.336C108.665 157.507 104.952 161.83 101.442 166.357L227.584 292.601L353.726 166.357C350.318 161.779 346.555 157.507 342.587 153.336ZM227.584 124.903C264.817 124.903 299.353 139.246 325.344 165.39L227.584 263.15L129.824 165.39C155.816 139.196 190.403 124.903 227.584 124.903Z" fill="url(#paint4_radial_713_81)"/>
<defs>
<radialGradient id="paint0_radial_713_81" cx="0" cy="0" r="1" gradientUnits="userSpaceOnUse" gradientTransform="translate(227.636 525.676) rotate(-74.4304) scale(527.901 582.195)">
<stop stop-color="#041427"/>
<stop offset="1" stop-color="#0E488D"/>
</radialGradient>
<radialGradient id="paint1_radial_713_81" cx="0" cy="0" r="1" gradientUnits="userSpaceOnUse" gradientTransform="translate(159.33 242.438) rotate(125.822) scale(93.3195 91.4642)">
<stop stop-color="white"/>
<stop offset="1" stop-color="#999999"/>
</radialGradient>
<radialGradient id="paint2_radial_713_81" cx="0" cy="0" r="1" gradientUnits="userSpaceOnUse" gradientTransform="translate(306.429 242.369) rotate(125.843) scale(93.273 91.4404)">
<stop stop-color="white"/>
<stop offset="1" stop-color="#999999"/>
</radialGradient>
<radialGradient id="paint3_radial_713_81" cx="0" cy="0" r="1" gradientUnits="userSpaceOnUse" gradientTransform="translate(252.801 267.309) rotate(133.551) scale(378.609 390.473)">
<stop stop-color="white"/>
<stop offset="1" stop-color="#999999"/>
</radialGradient>
<radialGradient id="paint4_radial_713_81" cx="0" cy="0" r="1" gradientUnits="userSpaceOnUse" gradientTransform="translate(247.549 171.75) rotate(134.011) scale(297.863 307.407)">
<stop stop-color="white"/>
<stop offset="1" stop-color="#999999"/>
</radialGradient>
</defs>
</svg>
