<svg width="456" height="526" viewBox="0 0 456 526" fill="none" xmlns="http://www.w3.org/2000/svg">
<path d="M202.646 14.5685C218.117 5.63688 237.176 5.63688 252.646 14.5685L430.043 116.988C445.513 125.92 455.043 142.426 455.043 160.29V365.134C455.043 382.998 445.512 399.505 430.042 408.436L252.645 510.849C237.176 519.78 218.117 519.78 202.648 510.849L25.2512 408.436C9.78046 399.505 0.25 382.998 0.25 365.134V160.29C0.25 142.426 9.77995 125.92 25.25 116.988L202.646 14.5685Z" fill="url(#paint0_linear_709_6938)"/>
<path d="M316.65 377.254H111.198V160.848H158.146V335.225H316.65V377.254Z" fill="url(#paint1_radial_709_6938)"/>
<path d="M316.65 202.877C339.862 202.877 358.679 184.06 358.679 160.848C358.679 137.636 339.862 118.818 316.65 118.818C293.437 118.818 274.62 137.636 274.62 160.848C274.62 184.06 293.437 202.877 316.65 202.877Z" fill="url(#paint2_radial_709_6938)"/>
<defs>
<linearGradient id="paint0_linear_709_6938" x1="195.543" y1="302.947" x2="363.923" y2="75.1388" gradientUnits="userSpaceOnUse">
<stop/>
<stop offset="1" stop-color="#2D2D2D"/>
</linearGradient>
<radialGradient id="paint1_radial_709_6938" cx="0" cy="0" r="1" gradientUnits="userSpaceOnUse" gradientTransform="translate(265.796 170.676) rotate(112.725) scale(271.791 258.703)">
<stop stop-color="white"/>
<stop offset="1" stop-color="#E4E4E4"/>
</radialGradient>
<radialGradient id="paint2_radial_709_6938" cx="0" cy="0" r="1" gradientUnits="userSpaceOnUse" gradientTransform="translate(337.872 122.636) rotate(113.805) scale(106.431 104.992)">
<stop stop-color="white"/>
<stop offset="1" stop-color="#E4E4E4"/>
</radialGradient>
</defs>
</svg>
