<svg width="456" height="526" viewBox="0 0 456 526" fill="none" xmlns="http://www.w3.org/2000/svg">
<path d="M202.984 15.1056C218.454 6.17399 237.514 6.17399 252.984 15.1056L430.381 117.525C445.851 126.457 455.381 142.963 455.381 160.827V365.671C455.381 383.535 445.85 400.042 430.38 408.973L252.983 511.386C237.514 520.317 218.455 520.317 202.986 511.386L25.5891 408.973C10.1183 400.042 0.587891 383.535 0.587891 365.671V160.827C0.587891 142.963 10.1178 126.457 25.5879 117.525L202.984 15.1056Z" fill="url(#paint0_radial_743_360)"/>
<path d="M350.296 382.066H309.781L283.469 284.335L226.897 382.076H181.666L269.103 230.782L255.031 178.258L137.128 382.109H91.875L241.295 123.688H280.91L298.257 187.892H339.13L311.223 236.346L350.296 382.066Z" fill="url(#paint1_linear_743_360)"/>
<defs>
<radialGradient id="paint0_radial_743_360" cx="0" cy="0" r="1" gradientUnits="userSpaceOnUse" gradientTransform="translate(336.599 130.144) rotate(105.35) scale(410.311 1140.1)">
<stop stop-color="#A73E79"/>
<stop offset="1" stop-color="#F49253"/>
</radialGradient>
<linearGradient id="paint1_linear_743_360" x1="321.072" y1="85.1835" x2="118.291" y2="555.926" gradientUnits="userSpaceOnUse">
<stop stop-color="white"/>
<stop offset="1" stop-color="#CACACA"/>
</linearGradient>
</defs>
</svg>
