<svg width="456" height="526" viewBox="0 0 456 526" fill="none" xmlns="http://www.w3.org/2000/svg">
<path d="M203.323 14.8947C218.793 5.96305 237.853 5.96305 253.323 14.8947L430.72 117.315C446.19 126.246 455.72 142.753 455.72 160.616V365.46C455.72 383.324 446.189 399.831 430.719 408.762L253.322 511.175C237.853 520.106 218.794 520.106 203.324 511.175L25.928 408.762C10.4572 399.831 0.926758 383.324 0.926758 365.46V160.616C0.926758 142.753 10.4567 126.246 25.9268 117.315L203.323 14.8947Z" fill="url(#paint0_radial_743_369)"/>
<path d="M176.904 148.844H146.143C144.018 148.844 142.122 150.172 141.393 152.167L60.536 373.83C59.9348 375.479 61.1557 377.224 62.9107 377.224H93.6726C95.797 377.224 97.6931 375.896 98.422 373.902L179.279 152.238C179.88 150.589 178.659 148.844 176.904 148.844ZM214.32 241.722C213.512 239.507 210.38 239.507 209.571 241.722L193.623 285.448C193.215 286.566 193.215 287.794 193.623 288.912L224.625 373.901C225.352 375.896 227.25 377.223 229.375 377.223H260.136C261.891 377.223 263.112 375.478 262.511 373.828L214.32 241.722ZM292.741 284.52C293.548 286.736 296.68 286.736 297.488 284.52L345.741 152.238C346.343 150.589 345.122 148.844 343.367 148.844H312.605C310.48 148.844 308.584 150.17 307.855 152.167L276.791 237.329C276.383 238.447 276.383 239.673 276.791 240.792L292.741 284.52ZM232.087 152.144C231.366 150.162 229.482 148.844 227.374 148.844H196.508C194.386 148.844 192.489 150.17 191.761 152.166L110.905 373.83C110.304 375.479 111.525 377.224 113.28 377.224H144.043C146.168 377.224 148.064 375.898 148.793 373.902L210.699 204.184C211.106 203.07 212.679 203.07 213.084 204.184L274.993 373.902C275.72 375.898 277.617 377.224 279.742 377.224H310.505C312.26 377.224 313.481 375.479 312.88 373.832L232.087 152.144ZM393.736 148.844H362.97C360.848 148.844 358.95 150.17 358.223 152.166L301.974 306.37C301.566 307.488 301.566 308.714 301.974 309.833L317.925 353.561C318.733 355.776 321.865 355.776 322.673 353.561L378.354 200.914L396.11 152.236C396.712 150.589 395.491 148.844 393.736 148.844Z" fill="url(#paint1_radial_743_369)"/>
<defs>
<radialGradient id="paint0_radial_743_369" cx="0" cy="0" r="1" gradientUnits="userSpaceOnUse" gradientTransform="translate(368.173 408.68) rotate(-144.818) scale(449.329 475.777)">
<stop stop-color="white"/>
<stop offset="1" stop-color="white" stop-opacity="0.85"/>
</radialGradient>
<radialGradient id="paint1_radial_743_369" cx="0" cy="0" r="1" gradientUnits="userSpaceOnUse" gradientTransform="translate(293.8 198.467) rotate(115.652) scale(366.948 539.678)">
<stop stop-color="#EF8220"/>
<stop offset="1" stop-color="#894B12"/>
</radialGradient>
</defs>
</svg>
