<svg width="456" height="526" viewBox="0 0 456 526" fill="none" xmlns="http://www.w3.org/2000/svg">
<path d="M202.72 14.549C218.19 5.61735 237.25 5.61735 252.72 14.549L430.116 116.969C445.586 125.9 455.116 142.407 455.116 160.27V365.115C455.116 382.978 445.586 399.485 430.115 408.416L252.718 510.83C237.249 519.76 218.19 519.76 202.721 510.83L25.3244 408.416C9.8537 399.485 0.323242 382.978 0.323242 365.115V160.27C0.323242 142.407 9.85319 125.9 25.3233 116.969L202.72 14.549Z" fill="url(#paint0_radial_743_370)"/>
<path d="M176.301 148.498H145.539C143.415 148.498 141.519 149.826 140.79 151.822L59.9325 373.484C59.3313 375.134 60.5522 376.879 62.3072 376.879H93.0691C95.1935 376.879 97.0896 375.55 97.8185 373.557L178.676 151.892C179.277 150.243 178.056 148.498 176.301 148.498ZM213.717 241.377C212.909 239.161 209.777 239.161 208.967 241.377L193.02 285.102C192.611 286.22 192.611 287.448 193.02 288.566L224.022 373.555C224.749 375.55 226.647 376.877 228.771 376.877H259.533C261.288 376.877 262.509 375.132 261.908 373.483L213.717 241.377ZM292.137 284.175C292.945 286.39 296.077 286.39 296.885 284.175L345.138 151.892C345.739 150.243 344.518 148.498 342.763 148.498H312.001C309.877 148.498 307.981 149.825 307.252 151.822L276.188 236.983C275.78 238.102 275.78 239.328 276.188 240.446L292.137 284.175ZM231.483 151.798C230.763 149.816 228.878 148.498 226.771 148.498H195.905C193.782 148.498 191.886 149.825 191.157 151.82L110.302 373.484C109.7 375.134 110.921 376.879 112.676 376.879H143.44C145.564 376.879 147.46 375.552 148.189 373.557L210.096 203.838C210.502 202.725 212.076 202.725 212.481 203.838L274.389 373.557C275.116 375.552 277.014 376.879 279.138 376.879H309.902C311.657 376.879 312.878 375.134 312.277 373.486L231.483 151.798ZM393.132 148.498H362.367C360.244 148.498 358.346 149.825 357.619 151.82L301.371 306.024C300.962 307.142 300.962 308.368 301.371 309.487L317.322 353.216C318.129 355.431 321.262 355.431 322.069 353.216L377.75 200.568L395.507 151.89C396.108 150.243 394.887 148.498 393.132 148.498Z" fill="url(#paint1_radial_743_370)"/>
<defs>
<radialGradient id="paint0_radial_743_370" cx="0" cy="0" r="1" gradientUnits="userSpaceOnUse" gradientTransform="translate(308.411 116.113) rotate(110.684) scale(627.116 543.102)">
<stop stop-color="#EF8220"/>
<stop offset="1" stop-color="#894B12"/>
</radialGradient>
<radialGradient id="paint1_radial_743_370" cx="0" cy="0" r="1" gradientUnits="userSpaceOnUse" gradientTransform="translate(320.875 192.461) rotate(131.921) scale(247.85 277.034)">
<stop stop-color="white"/>
<stop offset="1" stop-color="white" stop-opacity="0.85"/>
</radialGradient>
</defs>
</svg>
