<svg width="455" height="526" viewBox="0 0 455 526" fill="none" xmlns="http://www.w3.org/2000/svg">
<path d="M252.583 510.838C237.113 519.769 218.053 519.769 202.583 510.838L25.1865 408.418C9.71648 399.486 0.186517 382.98 0.186516 365.117L0.186507 160.272C0.186507 142.408 9.71699 125.902 25.1877 116.97L202.584 14.557C218.054 5.62627 237.112 5.62628 252.582 14.557L429.978 116.97C445.449 125.902 454.979 142.408 454.979 160.272L454.979 365.117C454.979 382.98 445.45 399.486 429.979 408.418L252.583 510.838Z" fill="url(#paint0_radial_736_272)"/>
<path fill-rule="evenodd" clip-rule="evenodd" d="M226.619 422.186C247.72 422.434 268.661 418.491 288.228 410.587C307.795 402.682 325.599 390.974 340.608 376.139C355.618 361.305 367.534 343.64 375.667 324.167C383.8 304.694 387.987 283.8 387.987 262.697C387.987 241.594 383.8 220.701 375.667 201.228C367.534 181.755 355.618 164.09 340.608 149.255C325.599 134.421 307.795 122.712 288.228 114.808C268.661 106.904 247.72 102.961 226.619 103.208C184.643 103.7 144.554 120.72 115.045 150.576C85.5363 180.433 68.9873 220.719 68.9873 262.697C68.9873 304.676 85.5363 344.962 115.045 374.818C144.554 404.675 184.643 421.695 226.619 422.186ZM226.619 386.224C259.377 386.224 290.794 373.211 313.958 350.047C337.121 326.883 350.134 295.467 350.134 262.708C350.134 229.95 337.121 198.533 313.958 175.369C290.794 152.206 259.377 139.193 226.619 139.193C193.86 139.193 162.444 152.206 139.28 175.369C116.116 198.533 103.103 229.95 103.103 262.708C103.103 295.467 116.116 326.883 139.28 350.047C162.444 373.211 193.86 386.224 226.619 386.224Z" fill="url(#paint1_linear_736_272)"/>
<path d="M281.343 358.442C288.507 358.442 295.377 355.596 300.442 350.531C305.508 345.466 308.353 338.596 308.353 331.432C308.353 324.268 305.508 317.398 300.442 312.333C295.377 307.268 288.507 304.422 281.343 304.422C274.18 304.422 267.309 307.268 262.244 312.333C257.179 317.398 254.333 324.268 254.333 331.432C254.333 338.596 257.179 345.466 262.244 350.531C267.309 355.596 274.18 358.442 281.343 358.442Z" fill="url(#paint2_linear_736_272)"/>
<path d="M265.19 109.397C291.171 111.257 321.881 134.131 334.007 145.359L349.46 161.994C321.224 148.839 296.49 134.152 265.19 134.919C233.89 135.685 193.637 167.401 196.745 226.565C199.832 285.707 245.469 317.817 278.323 328.63C304.611 337.298 307.281 325.39 304.961 318.167C315.555 338.786 301.525 359.186 278.323 361.112C259.762 362.644 235.531 349.117 225.747 342.157C199.438 323.727 149.642 270.407 160.783 204.523C174.704 122.158 232.708 107.077 265.19 109.397Z" fill="url(#paint3_linear_736_272)"/>
<path d="M115.1 265.065C113.231 268.186 112.006 271.65 111.497 275.252C110.989 278.855 111.206 282.522 112.137 286.039C113.069 289.556 114.695 292.85 116.919 295.729C119.144 298.607 121.923 301.011 125.091 302.798C128.26 304.586 131.754 305.721 135.368 306.136C138.983 306.552 142.643 306.239 146.135 305.217C149.626 304.195 152.878 302.485 155.698 300.186C158.518 297.888 160.849 295.048 162.554 291.834C165.883 285.558 166.63 278.228 164.634 271.409C162.638 264.59 158.058 258.82 151.87 255.329C145.681 251.838 138.374 250.902 131.505 252.72C124.636 254.539 118.75 258.969 115.1 265.065Z" fill="url(#paint4_linear_736_272)"/>
<path d="M342.276 369.538C328.267 391.514 293.421 408.499 277.793 413.818L255.817 419.487C280.814 400.926 305.591 385.298 319.84 357.39C334.09 329.483 325.378 279.03 271.883 253.552C218.388 228.074 168.439 252.896 143.267 276.644C123.13 295.643 132.542 303.742 139.984 305.143C117.22 305.143 105.357 282.489 114.703 261.169C122.189 244.118 145.631 229.256 156.422 223.959C185.162 209.622 255.773 191.258 308.393 232.43C374.167 283.911 359.787 342.09 342.276 369.538Z" fill="url(#paint5_linear_736_272)"/>
<path d="M281.386 166.657C279.544 163.591 277.116 160.918 274.24 158.791C271.365 156.664 268.099 155.124 264.628 154.259C261.158 153.395 257.551 153.222 254.013 153.751C250.476 154.28 247.078 155.501 244.012 157.343C240.946 159.186 238.274 161.614 236.147 164.489C234.02 167.365 232.48 170.631 231.615 174.101C230.75 177.572 230.577 181.179 231.106 184.716C231.635 188.253 232.856 191.652 234.699 194.717C238.42 200.909 244.448 205.368 251.457 207.115C258.466 208.861 265.882 207.752 272.073 204.031C278.264 200.31 282.723 194.282 284.47 187.273C286.217 180.264 285.107 172.848 281.386 166.657Z" fill="url(#paint6_linear_736_272)"/>
<path d="M77.6795 309.22C65.9967 285.975 68.3854 247.298 71.7295 231.145L77.9618 209.322C81.2191 240.294 82.7392 269.624 99.3949 296.065C116.051 322.506 163.564 340.652 212.293 307.535C261.022 274.418 264.996 218.8 257.417 185.048C251.337 158.038 239.328 162.284 234.377 167.997C246.191 147.313 271.532 149.436 285.039 168.325C295.832 183.428 296.7 211.161 295.788 223.155C293.552 255.178 273.639 325.33 211.924 349.714C134.769 380.204 92.3157 338.244 77.6795 309.22Z" fill="url(#paint7_linear_736_272)"/>
<path d="M315.619 146.258C255.623 116.709 219.814 150.176 209.417 170.598C242.622 127.084 287.186 149.41 305.288 166.002L315.619 146.258Z" fill="url(#paint8_linear_736_272)"/>
<path d="M280.774 399.509C338.624 362.277 329.015 315.305 317.48 295.496C336.085 346.977 293.053 372.652 269.282 378.891L280.774 399.509Z" fill="url(#paint9_linear_736_272)"/>
<path d="M81.6787 238.197C82.3791 306.992 125.477 324.568 150.452 325.159C97.0005 313.493 100.109 263.544 104.64 239.773L81.6787 238.197Z" fill="url(#paint10_linear_736_272)"/>
<path d="M254.64 153.658C267.926 165.128 286.247 198.376 270.049 257.102C248.271 335.944 178.075 347.041 142.747 342.51L144.367 324.431C164.219 327.626 187.771 323.621 211.63 307.533C260.747 274.416 264.752 218.798 257.113 185.046C250.985 158.036 238.88 162.457 233.89 168.17C239.515 157.992 246.76 154.775 254.64 153.658Z" fill="url(#paint11_linear_736_272)"/>
<path d="M320.874 303.507C313.607 284.595 298.154 266.078 271.888 253.558C218.415 228.102 168.444 252.901 143.273 276.65C123.136 295.649 132.832 303.835 140.296 305.236C136.066 305.356 131.864 304.517 128.004 302.781C124.145 301.044 120.73 298.456 118.014 295.211C118.867 280.021 133.335 250.909 187.925 231.626C262.214 205.36 319.32 251.5 336.021 291.731L320.874 303.507Z" fill="url(#paint12_linear_736_272)"/>
<path d="M219.614 156.552C204.971 171.961 195.099 195.579 196.741 226.573C199.827 285.715 245.464 317.825 278.318 328.638C304.606 337.305 307.277 325.486 304.957 318.263C309.816 327.018 309.4 335.248 306.401 342.537C285.323 348.49 242.991 344.988 202.3 292.237C149.615 223.946 190.349 167.036 204.051 147.906L206.481 144.426L219.614 156.552Z" fill="url(#paint13_linear_736_272)"/>
<path fill-rule="evenodd" clip-rule="evenodd" d="M275.323 230.747C315.335 245.741 335.844 284.417 341.141 301.928L337.53 303.022C332.43 286.125 312.512 248.696 274.01 234.249C229.467 217.549 163.146 229.894 128.125 274.13C126.122 276.952 124.462 280.001 123.178 283.213C121.646 287.022 120.683 290.787 120.88 293.348L117.137 293.632C116.874 290.174 118.122 285.752 119.698 281.813C121.317 277.851 123.419 274.042 125.17 271.81C161.307 226.151 229.445 213.543 275.323 230.747Z" fill="url(#paint14_linear_736_272)"/>
<path fill-rule="evenodd" clip-rule="evenodd" d="M175.049 234.43C169.162 192.076 193.414 155.632 206.262 142.652L208.933 145.279C196.522 157.821 173.101 193.171 178.749 233.905C185.293 281.008 227.756 333.453 283.331 343.149C285.673 343.565 289.744 343.587 293.903 343.105C298.105 342.602 302.002 341.617 304.169 340.238L306.182 343.39C303.271 345.272 298.653 346.323 294.363 346.826C290.484 347.349 286.553 347.349 282.674 346.826C225.327 336.845 181.769 282.956 175.049 234.43Z" fill="url(#paint15_linear_736_272)"/>
<path fill-rule="evenodd" clip-rule="evenodd" d="M229.532 322.086C196.262 348.921 152.529 346.929 134.777 342.596L135.653 338.94C152.791 343.121 195.167 344.981 227.168 319.175C264.181 289.319 287.273 225.909 266.961 173.268C265.496 170.044 263.604 167.033 261.335 164.315C258.665 161.01 255.754 158.187 253.434 157.027L255.097 153.678C258.162 155.21 261.532 158.559 264.29 161.973C267.026 165.41 269.434 169.218 270.463 171.933C291.432 226.259 267.661 291.333 229.532 322.086Z" fill="url(#paint16_linear_736_272)"/>
<defs>
<radialGradient id="paint0_radial_736_272" cx="0" cy="0" r="1" gradientUnits="userSpaceOnUse" gradientTransform="translate(87.733 117.052) rotate(35.1823) scale(449.329 475.777)">
<stop stop-color="white"/>
<stop offset="1" stop-color="white" stop-opacity="0.85"/>
</radialGradient>
<linearGradient id="paint1_linear_736_272" x1="346.282" y1="162.854" x2="116.937" y2="380.183" gradientUnits="userSpaceOnUse">
<stop stop-color="#0AE2FF"/>
<stop offset="0.189" stop-color="#047DA5"/>
<stop offset="0.278" stop-color="#0279C2"/>
<stop offset="0.42" stop-color="#018AF6"/>
<stop offset="0.553" stop-color="#0076ED"/>
<stop offset="0.744" stop-color="#4350D3"/>
<stop offset="0.873" stop-color="#910659"/>
<stop offset="1" stop-color="#CB006D"/>
</linearGradient>
<linearGradient id="paint2_linear_736_272" x1="226.622" y1="103.225" x2="226.622" y2="422.181" gradientUnits="userSpaceOnUse">
<stop stop-color="#016FD8"/>
<stop offset="1" stop-color="#003A72"/>
</linearGradient>
<linearGradient id="paint3_linear_736_272" x1="364.147" y1="157.157" x2="281.015" y2="438.268" gradientUnits="userSpaceOnUse">
<stop stop-color="#09DEFC"/>
<stop offset="0.269" stop-color="#028DF7"/>
<stop offset="0.483" stop-color="#0056AF"/>
<stop offset="0.795" stop-color="#3AA7F7"/>
<stop offset="1" stop-color="#086EE8"/>
</linearGradient>
<linearGradient id="paint4_linear_736_272" x1="226.621" y1="103.223" x2="226.621" y2="422.179" gradientUnits="userSpaceOnUse">
<stop stop-color="#344ABE"/>
<stop offset="1" stop-color="#392470"/>
</linearGradient>
<linearGradient id="paint5_linear_736_272" x1="277.859" y1="414.256" x2="39.2981" y2="222.274" gradientUnits="userSpaceOnUse">
<stop stop-color="#3458D8"/>
<stop offset="0.131" stop-color="#0187F5"/>
<stop offset="0.463" stop-color="#0271C2"/>
<stop offset="0.81" stop-color="#01BCF8"/>
<stop offset="1" stop-color="#534BCF"/>
</linearGradient>
<linearGradient id="paint6_linear_736_272" x1="77.9346" y1="173.376" x2="353.443" y2="338.896" gradientUnits="userSpaceOnUse">
<stop stop-color="#027ED5"/>
<stop offset="1" stop-color="#02517B"/>
</linearGradient>
<linearGradient id="paint7_linear_736_272" x1="89.7315" y1="354.704" x2="403.123" y2="187.82" gradientUnits="userSpaceOnUse">
<stop stop-color="#BD1493"/>
<stop offset="0.528" stop-color="#005AB9"/>
<stop offset="0.76" stop-color="#03DEFE"/>
<stop offset="1" stop-color="#06C1FD"/>
</linearGradient>
<linearGradient id="paint8_linear_736_272" x1="378.964" y1="222.802" x2="176.76" y2="291.684" gradientUnits="userSpaceOnUse">
<stop stop-color="#08CDED"/>
<stop offset="0.33" stop-color="#06ACCF"/>
<stop offset="1" stop-color="#03618E"/>
</linearGradient>
<linearGradient id="paint9_linear_736_272" x1="113.219" y1="371.273" x2="212.416" y2="156.856" gradientUnits="userSpaceOnUse">
<stop stop-color="#2660DE"/>
<stop offset="1" stop-color="#004988"/>
</linearGradient>
<linearGradient id="paint10_linear_736_272" x1="74.7182" y1="146.857" x2="198.869" y2="187.482" gradientUnits="userSpaceOnUse">
<stop stop-color="#4C46C3"/>
<stop offset="0.244" stop-color="#4250D3"/>
<stop offset="0.585" stop-color="#3B54D6"/>
<stop offset="1" stop-color="#4F1964"/>
</linearGradient>
<linearGradient id="paint11_linear_736_272" x1="272.764" y1="103.425" x2="173.785" y2="431.07" gradientUnits="userSpaceOnUse">
<stop stop-color="#05B2FC"/>
<stop offset="1" stop-color="#7E2B9F"/>
</linearGradient>
<linearGradient id="paint12_linear_736_272" x1="78.5929" y1="371.185" x2="375.332" y2="372.586" gradientUnits="userSpaceOnUse">
<stop stop-color="#6340C6"/>
<stop offset="0.179" stop-color="#1F61E0"/>
<stop offset="1" stop-color="#0184EF"/>
</linearGradient>
<linearGradient id="paint13_linear_736_272" x1="162.639" y1="114.373" x2="252.315" y2="438.32" gradientUnits="userSpaceOnUse">
<stop stop-color="#04A9F0"/>
<stop offset="0.312" stop-color="#0167C3"/>
<stop offset="0.577" stop-color="#066DE9"/>
<stop offset="1" stop-color="#007AEF"/>
</linearGradient>
<linearGradient id="paint14_linear_736_272" x1="345.344" y1="230.112" x2="59.7236" y2="244.909" gradientUnits="userSpaceOnUse">
<stop stop-color="#03B0FB"/>
<stop offset="0.424" stop-color="#02DFFC"/>
<stop offset="1" stop-color="#AF75F4"/>
</linearGradient>
<linearGradient id="paint15_linear_736_272" x1="228.347" y1="105.289" x2="228.347" y2="419.233" gradientUnits="userSpaceOnUse">
<stop stop-color="#03AFFA"/>
<stop offset="1" stop-color="#00C2F9"/>
</linearGradient>
<linearGradient id="paint16_linear_736_272" x1="155.155" y1="340.472" x2="290.688" y2="208.53" gradientUnits="userSpaceOnUse">
<stop stop-color="#BB46D6"/>
<stop offset="0.672" stop-color="#02E8FD"/>
<stop offset="1" stop-color="#08DDFE"/>
</linearGradient>
</defs>
</svg>
