<svg width="455" height="526" viewBox="0 0 455 526" fill="none" xmlns="http://www.w3.org/2000/svg">
<path d="M202.612 14.5919C218.082 5.6603 237.142 5.66031 252.612 14.5919L430.01 117.013C445.48 125.944 455.01 142.451 455.01 160.314V365.16C455.01 383.024 445.479 399.531 430.009 408.462L252.611 510.876C237.141 519.807 218.082 519.807 202.613 510.876L25.215 408.462C9.74429 399.531 0.213815 383.024 0.213815 365.16V160.314C0.213815 142.451 9.74377 125.944 25.2138 117.013L202.612 14.5919Z" fill="url(#paint0_radial_734_222)"/>
<path d="M260.493 133.019C257.464 126.862 252.772 121.676 246.947 118.05C241.122 114.423 234.398 112.501 227.536 112.501C220.675 112.501 213.95 114.423 208.125 118.05C202.301 121.676 197.608 126.862 194.58 133.019L95.0977 321.576C92.2815 327.186 90.9499 333.424 91.2301 339.694C91.5102 345.965 93.3928 352.059 96.698 357.395C100.003 362.731 104.621 367.131 110.11 370.175C115.6 373.219 121.778 374.805 128.054 374.782H327.018C333.295 374.805 339.473 373.219 344.962 370.175C350.451 367.131 355.069 362.731 358.374 357.395C361.68 352.059 363.562 345.965 363.842 339.694C364.122 333.424 362.791 327.186 359.975 321.576L260.493 133.019ZM175.8 123.568C180.569 113.919 187.941 105.796 197.083 100.117C206.225 94.4374 216.773 91.4277 227.536 91.4277C238.299 91.4277 248.847 94.4374 257.99 100.117C267.132 105.796 274.504 113.919 279.273 123.568L378.852 312.15C383.29 320.968 385.39 330.777 384.952 340.638C384.514 350.5 381.553 360.084 376.352 368.474C371.151 376.864 363.884 383.779 355.246 388.557C346.609 393.336 336.889 395.818 327.018 395.765H128.054C118.208 395.75 108.529 393.225 99.9299 388.43C91.3308 383.634 84.0959 376.726 78.9082 368.357C73.7206 359.989 70.7514 350.437 70.281 340.602C69.8106 330.767 71.8546 320.975 76.2199 312.15L175.8 123.69V123.568Z" fill="url(#paint1_radial_734_222)"/>
<defs>
<radialGradient id="paint0_radial_734_222" cx="0" cy="0" r="1" gradientUnits="userSpaceOnUse" gradientTransform="translate(296.864 103.601) rotate(99.3258) scale(427.355 370.103)">
<stop stop-color="#95E141"/>
<stop offset="1" stop-color="#3D9B2D"/>
</radialGradient>
<radialGradient id="paint1_radial_734_222" cx="0" cy="0" r="1" gradientUnits="userSpaceOnUse" gradientTransform="translate(326.386 76.0095) rotate(102.623) scale(451.997 458.818)">
<stop stop-color="white"/>
<stop offset="1" stop-color="white" stop-opacity="0.85"/>
</radialGradient>
</defs>
</svg>
