<svg width="456" height="526" viewBox="0 0 456 526" fill="none" xmlns="http://www.w3.org/2000/svg">
<path d="M202.955 14.922C218.425 5.9904 237.485 5.99039 252.955 14.922L430.352 117.342C445.822 126.274 455.352 142.78 455.352 160.643V365.488C455.352 383.351 445.821 399.858 430.35 408.79L252.954 511.203C237.484 520.133 218.426 520.133 202.956 511.203L25.5598 408.79C10.0891 399.858 0.558594 383.351 0.558594 365.488V160.643C0.558594 142.78 10.0885 126.274 25.5586 117.342L202.955 14.922Z" fill="url(#paint0_radial_743_378)"/>
<path d="M384.18 230.884C382.051 220.567 378.939 210.578 374.845 200.916C370.915 191.418 365.839 182.411 360.107 173.732C354.376 165.217 347.825 157.356 340.62 150.151C333.415 142.946 325.554 136.395 317.039 130.664C308.524 124.932 299.353 120.02 289.855 115.926C280.193 111.832 270.204 108.72 259.888 106.592C249.407 104.463 238.599 103.316 227.791 103.316C216.983 103.316 206.339 104.626 195.858 106.755C185.542 108.884 175.552 111.996 165.891 116.09C156.393 120.02 147.386 125.096 138.707 130.828C130.191 136.559 122.331 143.11 115.126 150.315C107.92 157.52 101.37 165.381 95.6386 173.896C89.907 182.411 84.9943 191.582 80.9004 201.08C76.8064 210.741 73.695 220.731 71.5662 231.047C69.4373 241.528 68.291 252.336 68.291 263.144C68.291 273.952 69.4373 284.76 71.5662 295.24C73.695 305.557 76.8064 315.546 80.9004 325.208C84.8305 334.706 89.907 343.713 95.6386 352.392C101.37 360.907 107.92 368.768 115.126 375.973C122.331 383.178 130.191 389.729 138.707 395.46C147.222 401.192 156.393 406.104 165.891 410.198C175.552 414.292 185.542 417.404 195.858 419.533C206.339 421.661 217.147 422.808 227.955 422.808C238.763 422.808 249.571 421.661 260.051 419.533C270.368 417.404 280.357 414.292 290.019 410.198C299.517 406.268 308.524 401.192 317.203 395.46C325.718 389.729 333.579 383.178 340.784 375.973C347.989 368.768 354.539 360.907 360.271 352.392C366.003 343.876 370.915 334.706 375.009 325.208C379.103 315.546 382.215 305.557 384.343 295.24C386.472 284.76 387.619 273.952 387.619 263.144C387.455 252.172 386.308 241.364 384.18 230.884ZM227.955 402.502C150.825 402.502 88.4332 339.946 88.4332 262.98C88.4332 186.014 150.989 123.459 227.955 123.459C304.921 123.459 367.476 186.014 367.476 262.98C367.476 340.11 305.085 402.502 227.955 402.502Z" fill="url(#paint1_radial_743_378)"/>
<path d="M230.412 390.548H234.178C234.833 390.548 235.488 390.548 236.144 390.385H236.307C236.962 390.385 237.454 390.385 238.109 390.221H238.6C239.091 390.221 239.582 390.221 240.074 390.057H240.565C241.056 390.057 241.548 389.893 242.203 389.893H242.53C243.185 389.893 243.84 389.73 244.495 389.73C245.15 389.73 245.641 389.566 246.296 389.402H246.624C247.115 389.402 247.607 389.238 248.098 389.238H248.425C249.08 389.075 249.572 389.075 250.227 388.911C251.537 388.747 252.847 388.42 253.993 388.092H254.321C254.812 387.928 255.467 387.928 255.958 387.765H256.122C257.432 387.437 258.578 387.11 259.888 386.782C244.168 387.273 231.395 385.144 223.37 383.343C205.357 379.413 188.163 372.371 173.588 360.253C149.352 339.947 136.906 310.798 137.234 281.813C137.398 260.197 144.767 238.581 159.669 220.895C178.337 198.788 204.866 187.161 232.05 186.506H235.816V164.727H231.558C223.207 164.89 215.019 165.873 206.995 167.674C198.807 169.476 190.946 172.259 183.414 175.698C175.717 179.301 168.512 183.722 161.798 188.799C154.92 194.039 148.533 200.098 142.965 206.812C137.725 213.035 133.14 219.749 129.374 226.954C125.607 233.832 122.659 241.201 120.367 248.734C118.238 256.103 116.6 263.8 115.945 271.497C115.782 273.953 115.618 276.246 115.454 278.702V282.96C115.618 291.311 116.6 299.499 118.402 307.523C120.203 315.711 122.987 323.572 126.426 331.104C130.52 340.111 137.889 353.375 148.861 363.365C170.477 380.395 197.824 390.548 227.464 390.548H230.412Z" fill="url(#paint2_radial_743_378)"/>
<path d="M266.111 369.423C258.578 369.259 249.244 368.113 242.039 366.803C208.305 360.744 179.32 340.11 168.675 308.996C155.738 271.168 175.553 230.229 213.217 217.783C220.587 215.327 227.956 214.181 235.488 214.181C245.15 214.181 254.812 216.146 263.655 219.749L272.825 200.261C270.041 199.115 267.257 198.133 264.474 197.15C255.139 194.202 245.314 192.729 235.488 192.729C225.663 192.729 215.838 194.366 206.503 197.477C194.549 201.408 183.577 207.794 174.243 216.146C169.822 220.076 165.564 224.661 161.961 229.41C158.359 234.159 155.247 239.236 152.627 244.64C150.007 250.044 147.878 255.611 146.404 261.343C144.93 267.075 143.784 273.134 143.457 279.193C142.638 291.638 144.275 304.084 148.369 315.874C152.463 327.829 159.014 338.8 168.02 348.462C176.044 357.141 185.379 363.692 196.678 369.751C208.468 375.973 223.043 379.249 238.272 381.377C248.098 382.687 261.198 383.015 268.895 383.015C275.609 380.559 278.393 379.412 281.996 377.938C285.107 376.465 288.218 374.991 291.33 373.189C294.441 371.388 294.933 371.061 300.173 367.622C300.664 367.294 301.155 366.967 301.483 366.639C283.469 369.914 278.884 369.751 266.111 369.423Z" fill="url(#paint3_radial_743_378)"/>
<path d="M306.395 345.187C301.319 345.515 294.113 346.006 285.925 346.006C271.351 346.006 253.501 344.696 238.272 339.619C214.691 331.759 192.42 311.617 192.42 286.726C192.42 261.834 212.562 241.856 237.289 241.856C254.156 241.856 268.731 251.19 276.427 264.782L295.915 255.12C292.803 249.389 289.037 244.149 284.288 239.563C278.229 233.504 271.023 228.592 263.163 225.316C254.975 221.878 246.296 220.076 237.289 220.076C228.283 220.076 219.604 221.878 211.416 225.316C203.555 228.592 196.35 233.504 190.291 239.563C184.232 245.622 179.319 252.828 176.044 260.688C172.605 268.876 170.804 277.555 170.804 286.562C170.804 295.568 172.769 304.575 176.535 313.091C179.974 320.623 184.723 327.665 190.782 334.215C201.426 345.678 216.001 354.849 231.558 360.089C246.46 365.002 268.403 366.803 289.692 365.329C295.587 365.002 300.009 364.347 307.541 362.709C314.747 356.978 321.461 350.427 327.192 343.222C322.28 343.713 312.945 344.696 306.395 345.187Z" fill="url(#paint4_radial_743_378)"/>
<defs>
<radialGradient id="paint0_radial_743_378" cx="0" cy="0" r="1" gradientUnits="userSpaceOnUse" gradientTransform="translate(265.507 151.657) rotate(113.552) scale(787.513 704.013)">
<stop stop-color="white"/>
<stop offset="1" stop-color="#999999"/>
</radialGradient>
<radialGradient id="paint1_radial_743_378" cx="0" cy="0" r="1" gradientUnits="userSpaceOnUse" gradientTransform="translate(371.955 -2.10898) rotate(107.915) scale(514.51 514.246)">
<stop stop-color="#666666"/>
<stop offset="1"/>
</radialGradient>
<radialGradient id="paint2_radial_743_378" cx="0" cy="0" r="1" gradientUnits="userSpaceOnUse" gradientTransform="translate(252.804 90.2101) rotate(101.688) scale(353.359 239.381)">
<stop stop-color="#666666"/>
<stop offset="1"/>
</radialGradient>
<radialGradient id="paint3_radial_743_378" cx="0" cy="0" r="1" gradientUnits="userSpaceOnUse" gradientTransform="translate(293.721 129.938) rotate(105.054) scale(301.942 258.61)">
<stop stop-color="#666666"/>
<stop offset="1"/>
</radialGradient>
<radialGradient id="paint4_radial_743_378" cx="0" cy="0" r="1" gradientUnits="userSpaceOnUse" gradientTransform="translate(319.521 171.981) rotate(109.139) scale(236.407 250.052)">
<stop stop-color="#666666"/>
<stop offset="1"/>
</radialGradient>
</defs>
</svg>
