<svg width="456" height="526" viewBox="0 0 456 526" fill="none" xmlns="http://www.w3.org/2000/svg">
<path d="M202.637 14.6056C218.107 5.67399 237.167 5.67399 252.637 14.6056L430.033 117.025C445.503 125.957 455.033 142.463 455.033 160.327V365.171C455.033 383.035 445.503 399.542 430.032 408.473L252.635 510.886C237.166 519.817 218.107 519.817 202.638 510.886L25.2414 408.473C9.77069 399.542 0.240234 383.035 0.240234 365.171V160.327C0.240234 142.463 9.77019 125.957 25.2402 117.025L202.637 14.6056Z" fill="url(#paint0_radial_738_292)"/>
<path d="M244.192 308.129H119.944V126.496H244.192C264.661 126.517 284.283 134.664 298.747 149.147C313.211 163.63 321.333 183.263 321.328 203.731V230.894C321.328 251.361 313.204 270.991 298.742 285.472C284.279 299.954 264.659 308.103 244.192 308.129Z" fill="url(#paint1_radial_738_292)"/>
<path d="M276.123 398.994H119.944V308.128C119.939 296.207 122.283 284.402 126.843 273.387C131.403 262.372 138.088 252.364 146.518 243.935C154.947 235.505 164.955 228.82 175.97 224.26C186.985 219.7 198.79 217.356 210.711 217.361H276.123C300.209 217.361 323.309 226.929 340.34 243.961C357.372 260.992 366.94 284.092 366.94 308.178C366.94 332.264 357.372 355.363 340.34 372.395C323.309 389.426 300.209 398.994 276.123 398.994Z" fill="url(#paint2_radial_738_292)"/>
<path d="M321.329 229.363V230.893C321.331 241.036 319.335 251.081 315.455 260.453C311.574 269.824 305.885 278.34 298.713 285.512C291.54 292.685 283.025 298.374 273.653 302.254C264.281 306.135 254.237 308.131 244.093 308.128H119.965C119.975 284.058 129.542 260.978 146.561 243.958C163.581 226.938 186.662 217.372 210.732 217.361H276.144C292.656 217.361 308.075 221.792 321.349 229.363" fill="url(#paint3_radial_738_292)"/>
<defs>
<radialGradient id="paint0_radial_738_292" cx="0" cy="0" r="1" gradientUnits="userSpaceOnUse" gradientTransform="translate(439.725 -44.1421) rotate(111.621) scale(612.561 648.617)">
<stop stop-color="#5D6D3C"/>
<stop offset="1" stop-color="#151515"/>
</radialGradient>
<radialGradient id="paint1_radial_738_292" cx="0" cy="0" r="1" gradientUnits="userSpaceOnUse" gradientTransform="translate(276.489 161.46) rotate(124.094) scale(177.112 184.861)">
<stop stop-color="white"/>
<stop offset="1" stop-color="white" stop-opacity="0.85"/>
</radialGradient>
<radialGradient id="paint2_radial_738_292" cx="0" cy="0" r="1" gradientUnits="userSpaceOnUse" gradientTransform="translate(311.945 252.325) rotate(129.7) scale(190.628 210.654)">
<stop stop-color="white"/>
<stop offset="1" stop-color="white" stop-opacity="0.85"/>
</radialGradient>
<radialGradient id="paint3_radial_738_292" cx="0" cy="0" r="1" gradientUnits="userSpaceOnUse" gradientTransform="translate(340.376 63.1099) rotate(110.682) scale(482.693 295.225)">
<stop stop-color="#4B5732"/>
<stop offset="1" stop-color="#151515"/>
</radialGradient>
</defs>
</svg>
