<svg width="456" height="526" viewBox="0 0 456 526" fill="none" xmlns="http://www.w3.org/2000/svg">
<path d="M203.188 14.4689C218.658 5.53727 237.717 5.53727 253.187 14.4689L430.584 116.889C446.054 125.82 455.584 142.327 455.584 160.19V365.034C455.584 382.898 446.054 399.405 430.583 408.336L253.186 510.75C237.717 519.68 218.658 519.68 203.189 510.75L25.7922 408.336C10.3215 399.405 0.791016 382.898 0.791016 365.034V160.19C0.791016 142.327 10.321 125.82 25.791 116.889L203.188 14.4689Z" fill="url(#paint0_radial_734_209)"/>
<path d="M224.107 112.175C231.524 108.378 240.664 117.032 236.646 124.295C234.46 130.057 225.807 131.58 221.149 127.165C216.513 122.926 218.058 114.449 224.239 112.021L224.107 112.175ZM144.28 120.498C148.916 118.688 154.501 122.639 154.038 127.341C154.501 132.485 147.989 136.414 143.353 133.832C137.304 131.58 138.077 122.021 144.28 120.498ZM307.863 134.008C300.754 133.081 299.672 122.485 306.339 120.365C311.77 117.937 316.561 122.485 317.333 127.341C316.251 131.425 312.697 135.222 307.885 134.008M162.427 153.104C170.021 148.556 180.705 155.356 179.469 163.7C179.16 172.354 167.548 177.343 160.881 171.581C154.369 167.034 155.451 156.57 162.427 153.104ZM277.552 158.093C280.952 149.77 294.573 149.461 298.458 157.497C302.167 163.855 297.531 171.736 290.732 173.855C281.879 175.378 273.358 166.283 277.552 158.093ZM214.482 173.259C214.482 166.129 221.303 160.83 228.434 160.367C233.07 161.272 238.191 163.237 240.2 167.806C243.909 174.01 240.664 182.641 233.842 185.688C230.752 187.189 227.043 186.571 223.643 186.438C218.521 184.01 214.173 179.153 214.482 173.414V173.259ZM95.8236 183.856C102.623 179.772 111.939 187.211 109.29 194.474C107.899 200.523 99.2233 203.106 94.2783 199.176C88.9801 195.379 89.7748 186.438 95.8236 183.856ZM350.8 183.856C356.695 179.33 366.32 184.474 365.547 191.45C365.988 197.962 357.798 202.973 351.904 199.618C345.546 196.748 344.774 187.498 350.8 183.856ZM247.949 196.748C252.783 195.181 257.993 195.203 262.806 196.814C267.618 198.426 271.769 201.538 274.594 205.689C281.725 215.689 278.016 231.142 266.691 236.904C255.079 243.88 238.037 237.964 233.71 225.535C228.743 214.32 235.873 200.236 247.949 196.748ZM191.39 197.808C202.097 192.951 216.491 197.057 221.612 207.521C227.793 217.808 223.003 232.069 212.164 237.368C201.324 243.416 185.827 238.869 180.705 227.809C174.679 217.212 179.933 202.642 191.39 197.808ZM134.699 216.44C135.472 209.795 141.984 205.534 148.651 205.093C152 205.407 155.141 206.854 157.557 209.193C159.973 211.533 161.519 214.626 161.941 217.963C161.477 224.784 156.069 231.606 148.629 231.606C140.24 232.224 133.154 224.166 134.699 216.44ZM302.013 206.439C310.512 201.914 322.146 208.713 321.837 217.963C322.455 227.963 309.43 234.961 301.085 229.177C292.233 224.321 292.851 210.7 301.99 206.439M168.277 241.452C173.2 240.193 178.41 240.546 183.134 242.467C187.836 244.366 191.743 247.765 194.304 252.07C196.888 256.523 197.792 261.754 196.853 266.816C195.913 271.878 193.192 276.436 189.183 279.665C178.652 289.202 159.137 285.272 153.552 272.38C147.04 260.547 154.788 244.608 168.277 241.452ZM275.632 241.452C285.257 238.736 296.538 242.357 301.681 250.723C308.635 260.393 305.214 274.963 295.147 281.012C284.33 288.297 267.883 284.5 262.011 273.131C254.88 261.474 262.011 244.94 275.632 241.297V241.452ZM104.455 252.225C112.955 249.2 122.425 258.273 119.025 266.464C116.818 273.903 106.001 276.619 100.415 271.011C93.7485 266 96.221 254.498 104.455 252.225ZM336.363 264.19C336.284 262.527 336.536 260.864 337.104 259.299C337.673 257.734 338.546 256.297 339.674 255.072C341.999 252.566 345.202 251.055 348.615 250.856C354.354 251.761 360.094 256.309 359.609 262.534C360.227 270.57 350.006 276.177 342.875 272.247C339.475 270.702 337.775 267.391 336.363 264.19ZM62.3786 256.309C67.6327 254.189 73.9906 258.428 72.7543 263.881C72.4453 270.106 62.9968 272.534 59.4205 267.391C56.3298 263.748 58.1842 258.273 62.5111 256.309H62.3786ZM386.939 256.309C390.669 253.748 396.387 255.426 397.778 259.488C400.272 264.035 395.791 270.106 390.669 269.333C383.384 269.952 380.89 259.333 386.939 256.154V256.309ZM196.225 286.023C209.691 282.689 224.261 293.595 224.416 306.929C225.188 320.572 210.949 332.713 196.997 329.534C191.732 328.61 186.954 325.878 183.487 321.808C180.076 317.782 178.22 312.668 178.255 307.392C178.255 297.524 186.004 288.142 196.225 286.177V286.023ZM249.825 286.023C263.623 282.38 278.502 293.44 278.347 307.238C279.098 320.417 265.168 332.095 251.547 329.38C238.831 327.857 229.383 314.368 232.937 302.381C234.791 294.5 241.613 287.988 249.825 286.023ZM146.333 294.345C155.936 292.822 164.921 302.999 160.903 311.631C158.122 320.881 144.17 323.464 137.967 315.869C130.681 308.584 136.09 295.251 146.333 294.345ZM303.757 294.809C312.145 291.321 322.676 298.452 321.903 307.238C322.367 316.951 309.496 323.773 301.152 317.989C291.836 312.845 293.381 297.856 303.757 294.809ZM347.599 337.261C344.354 331.19 350.403 323.309 357.224 324.369C360.624 324.369 363.097 326.952 365.282 329.225C365.746 332.713 366.518 336.797 363.406 339.667C359.211 344.679 349.939 343.177 347.599 337.261ZM95.7133 326.002C102.049 321.918 111.188 328.122 109.798 335.274C109.025 341.787 100.658 345.429 95.2276 341.787C89.3554 338.431 89.5099 329.049 95.7133 326.002ZM222.561 339.491C230.95 335.848 241.613 342.979 240.84 351.787C241.458 361.611 228.301 368.454 220.089 362.538C210.795 357.527 212.34 342.537 222.561 339.491ZM163.685 352.692C170.97 349.05 180.573 355.275 179.8 363.002C180.109 369.359 173.619 374.812 167.261 373.752C161.831 373.752 158.276 369.05 156.577 364.657C156.577 359.801 158.74 354.502 163.862 352.538L163.685 352.692ZM282.983 352.692C290.268 348.277 300.644 354.679 300.026 362.847C300.18 371.633 288.414 377.086 281.438 371.479C279.943 370.358 278.757 368.876 277.992 367.172C277.226 365.468 276.905 363.597 277.06 361.735C277.214 359.874 277.839 358.081 278.875 356.527C279.911 354.972 281.324 353.706 282.983 352.847V352.692ZM303.602 401.943C300.335 397.396 304.198 391.479 309.474 390.442C313.823 391.325 318.305 394.371 317.223 399.051C316.759 405.586 307.002 407.551 303.602 402.098V401.943ZM139.225 397.859C140.439 394.084 143.552 390.287 148.21 391.325C155.009 391.788 157.04 401.634 151.146 404.681C145.715 407.992 139.666 403.312 139.225 397.859ZM218.544 402.252C219.758 396.645 227.374 393.93 232.319 396.954C235.41 398.323 236.513 401.811 237.286 404.835L236.05 409.361C234.019 411.789 231.414 414.063 228.147 413.909C221.789 414.681 216.049 407.86 218.544 402.252Z" fill="url(#paint1_radial_734_209)"/>
<defs>
<radialGradient id="paint0_radial_734_209" cx="0" cy="0" r="1" gradientUnits="userSpaceOnUse" gradientTransform="translate(162.239 594.491) rotate(-68.1986) scale(608.53 527.005)">
<stop stop-color="#0035AA"/>
<stop offset="1" stop-color="#2F52A8"/>
</radialGradient>
<radialGradient id="paint1_radial_734_209" cx="0" cy="0" r="1" gradientUnits="userSpaceOnUse" gradientTransform="translate(322.651 169.523) rotate(124.486) scale(296.563 311.203)">
<stop stop-color="white"/>
<stop offset="1" stop-color="white" stop-opacity="0.85"/>
</radialGradient>
</defs>
</svg>
