<svg width="456" height="526" viewBox="0 0 456 526" fill="none" xmlns="http://www.w3.org/2000/svg">
<path d="M202.832 14.5744C218.302 5.64272 237.361 5.64274 252.832 14.5744L430.229 116.995C445.7 125.927 455.229 142.433 455.229 160.296V365.142C455.229 383.006 445.699 399.513 430.228 408.444L252.83 510.859C237.361 519.789 218.302 519.789 202.833 510.859L25.4348 408.444C9.96401 399.513 0.433542 383.006 0.433542 365.142V160.296C0.433542 142.433 9.96349 125.927 25.4336 116.995L202.832 14.5744Z" fill="url(#paint0_linear_734_216)"/>
<path d="M94.7979 129.682H360.864V224.712H314.879C306.148 204.7 290.792 188.306 271.395 178.285C251.997 168.265 229.741 165.229 208.368 169.688C186.995 174.148 167.81 185.831 154.038 202.773C140.267 219.715 132.749 240.882 132.749 262.715C132.749 284.548 140.267 305.715 154.038 322.657C167.81 339.599 186.995 351.282 208.368 355.741C229.741 360.201 251.997 357.165 271.395 347.144C290.792 337.124 306.148 320.729 314.879 300.718H360.864V395.748H94.7979V129.682Z" fill="url(#paint1_radial_734_216)"/>
<defs>
<linearGradient id="paint0_linear_734_216" x1="195.728" y1="302.955" x2="364.109" y2="75.1451" gradientUnits="userSpaceOnUse">
<stop/>
<stop offset="1" stop-color="#2D2D2D"/>
</linearGradient>
<radialGradient id="paint1_radial_734_216" cx="0" cy="0" r="1" gradientUnits="userSpaceOnUse" gradientTransform="translate(279.639 173.926) rotate(108.616) scale(324.064)">
<stop stop-color="#FCFE52"/>
<stop offset="1" stop-color="#979831"/>
</radialGradient>
</defs>
</svg>
