<svg width="455" height="526" viewBox="0 0 455 526" fill="none" xmlns="http://www.w3.org/2000/svg">
<path d="M202.563 15.0431C218.034 6.11149 237.093 6.11149 252.563 15.0431L429.96 117.463C445.43 126.395 454.96 142.901 454.96 160.764V365.609C454.96 383.472 445.429 399.979 429.959 408.911L252.562 511.324C237.093 520.255 218.034 520.255 202.565 511.324L25.1682 408.911C9.69745 399.979 0.166992 383.472 0.166992 365.609V160.764C0.166992 142.901 9.69694 126.395 25.167 117.463L202.563 15.0431Z" fill="url(#paint0_radial_738_332)"/>
<path d="M245.551 240.269L239.393 271.587L297.995 279.422L293.883 294.097L236.314 286.262C232.202 299.008 230.136 312.708 225.011 324.46C219.866 338.16 214.721 351.861 208.543 364.606C200.319 381.249 185.936 393.001 166.409 395.924C155.105 397.893 142.769 396.899 133.512 390.058C130.433 388.109 127.334 384.192 127.334 381.249C127.334 377.332 127.256 372.733 132.479 370.472C137.702 368.211 139.846 369.81 142.769 371.447C145.848 374.389 148.927 378.307 150.993 382.224C157.151 390.058 165.376 391.033 173.6 385.147C182.857 377.332 188.002 366.555 191.081 355.797C197.239 332.294 203.417 309.765 208.543 286.282V282.345L154.072 274.511L156.119 259.836L212.674 267.67L219.846 237.327L161.264 228.498L163.329 212.849L223.978 220.683C226.024 214.798 227.057 209.906 229.123 205.015C234.248 187.378 239.393 169.76 251.729 154.091C264.066 138.422 278.448 128.639 300.041 129.614C309.298 129.614 318.555 132.556 324.714 139.416C325.747 140.391 327.793 142.34 327.793 144.288C327.793 148.225 327.793 153.117 324.714 156.059C320.602 158.983 315.457 158.008 311.345 154.111C308.265 151.168 306.2 148.225 303.121 145.282C296.962 137.448 287.705 136.473 280.514 143.333C274.948 148.652 270.415 154.956 267.145 161.926C259.934 182.486 254.808 204.021 247.617 225.575L304.153 233.409L300.041 248.084L245.551 240.269Z" fill="url(#paint1_radial_738_332)"/>
<defs>
<radialGradient id="paint0_radial_738_332" cx="0" cy="0" r="1" gradientUnits="userSpaceOnUse" gradientTransform="translate(265.115 151.779) rotate(113.552) scale(787.513 704.013)">
<stop stop-color="white"/>
<stop offset="1" stop-color="#999999"/>
</radialGradient>
<radialGradient id="paint1_radial_738_332" cx="0" cy="0" r="1" gradientUnits="userSpaceOnUse" gradientTransform="translate(307.066 91.0288) rotate(101.844) scale(451.508 338.639)">
<stop stop-color="#0090FF"/>
<stop offset="1" stop-color="#005699"/>
</radialGradient>
</defs>
</svg>
