<svg width="456" height="526" viewBox="0 0 456 526" fill="none" xmlns="http://www.w3.org/2000/svg">
<path d="M202.729 14.8244C218.199 5.89274 237.258 5.89274 252.729 14.8244L430.125 117.244C445.595 126.176 455.125 142.682 455.125 160.546V365.39C455.125 383.254 445.595 399.76 430.124 408.692L252.727 511.105C237.258 520.036 218.199 520.036 202.73 511.105L25.3332 408.692C9.86249 399.76 0.332031 383.254 0.332031 365.39V160.546C0.332031 142.682 9.86198 126.176 25.332 117.244L202.729 14.8244Z" fill="url(#paint0_radial_738_331)"/>
<path d="M245.716 240.051L239.558 271.369L298.16 279.203L294.048 293.878L236.479 286.044C232.367 298.789 230.301 312.489 225.176 324.241C220.031 337.941 214.886 351.642 208.708 364.387C200.484 381.031 186.101 392.782 166.574 395.705C155.27 397.674 142.934 396.68 133.677 389.839C130.598 387.891 127.499 383.973 127.499 381.031C127.499 377.113 127.421 372.514 132.644 370.253C137.867 367.993 140.011 369.591 142.934 371.228C146.013 374.171 149.092 378.088 151.158 382.005C157.317 389.839 165.541 390.814 173.765 384.928C183.022 377.113 188.167 366.336 191.246 355.579C197.404 332.075 203.582 309.547 208.708 286.063V282.126L154.237 274.292L156.284 259.617L212.839 267.451L220.011 237.108L161.429 228.28L163.494 212.63L224.143 220.465C226.189 214.579 227.222 209.687 229.288 204.796C234.413 187.159 239.558 169.541 251.894 153.872C264.231 138.204 278.613 128.42 300.206 129.395C309.463 129.395 318.72 132.338 324.879 139.198C325.912 140.172 327.958 142.121 327.958 144.07C327.958 148.006 327.958 152.898 324.879 155.841C320.767 158.764 315.622 157.79 311.51 153.892C308.431 150.949 306.365 148.006 303.286 145.064C297.127 137.229 287.87 136.255 280.679 143.115C275.113 148.434 270.58 154.737 267.31 161.707C260.099 182.267 254.974 203.802 247.782 225.356L304.318 233.191L300.206 247.866L245.716 240.051Z" fill="url(#paint1_radial_738_331)"/>
<defs>
<radialGradient id="paint0_radial_738_331" cx="0" cy="0" r="1" gradientUnits="userSpaceOnUse" gradientTransform="translate(436.07 34.3015) rotate(163.778) scale(695.006 758.721)">
<stop stop-color="#0090FF"/>
<stop offset="1" stop-color="#005699"/>
</radialGradient>
<radialGradient id="paint1_radial_738_331" cx="0" cy="0" r="1" gradientUnits="userSpaceOnUse" gradientTransform="translate(283.325 180.777) rotate(114.603) scale(237.373 202.032)">
<stop stop-color="white"/>
<stop offset="1" stop-color="white" stop-opacity="0.85"/>
</radialGradient>
</defs>
</svg>
