<svg width="456" height="526" viewBox="0 0 456 526" fill="none" xmlns="http://www.w3.org/2000/svg">
<path d="M203.351 14.8693C218.821 5.93766 237.881 5.93766 253.351 14.8693L430.747 117.289C446.217 126.221 455.747 142.727 455.747 160.59V365.435C455.747 383.299 446.217 399.805 430.746 408.737L253.349 511.15C237.88 520.081 218.821 520.081 203.352 511.15L25.9553 408.737C10.4846 399.805 0.954102 383.299 0.954102 365.435V160.59C0.954102 142.727 10.4841 126.221 25.9541 117.289L203.351 14.8693Z" fill="url(#paint0_radial_738_317)"/>
<path fill-rule="evenodd" clip-rule="evenodd" d="M264.625 225.656C259.638 228.238 256.861 231.893 256.168 235.687C255.476 239.481 256.801 243.777 260.596 247.731C262.192 249.394 264.176 250.928 266.486 252.234L247.536 254.504C243.094 248.594 240.738 241.27 242.156 233.498C243.834 224.307 250.278 217.312 258.278 213.171C266.276 209.03 276.234 207.466 286.323 209.042C294.736 210.356 302.259 213.699 308.045 218.421L298.84 229.413C295.072 226.34 289.885 223.948 283.775 222.993C276.415 221.843 269.616 223.074 264.625 225.656ZM206.81 259.384L183.388 209.598H183.337H167.953H167.715L167.84 209.865L143.848 266.928L160.049 264.987L175.964 227.133L191.974 261.162L206.81 259.384ZM194.094 265.669L208.931 263.891L233.058 315.174H217.385L194.094 265.669ZM157.941 270L141.74 271.942L123.562 315.174H138.947L157.941 270ZM66.8343 276.155V209.598H52.6523V277.855L66.8343 276.155ZM52.6523 282.616L66.8343 280.916V300.992H113.32V315.174H66.8343H66.0464H52.6523V282.616ZM251.385 258.804L276.33 255.816C276.793 255.907 277.264 255.99 277.739 256.064C287.68 257.703 296.391 262.19 302.396 268.466C308.472 274.817 312.061 283.387 310.367 292.575C308.673 301.763 302.22 308.75 294.212 312.878C286.205 317.007 276.245 318.558 266.158 316.966C257.747 315.639 250.23 312.286 244.452 307.555L253.677 296.579C257.438 299.656 262.622 302.056 268.728 303.019C276.089 304.18 282.89 302.959 287.883 300.384C292.877 297.809 295.658 294.158 296.358 290.365C297.058 286.572 295.739 282.274 291.951 278.315C288.188 274.382 282.264 271.163 274.976 269.981L274.918 269.972L274.822 269.957C265.539 268.436 257.326 264.433 251.385 258.804ZM354.413 246.46V315.174H368.594V244.761L354.413 246.46ZM368.594 240V223.78H404.049V209.598H320.533V223.78H354.413V241.699L368.594 240Z" fill="url(#paint1_linear_738_317)"/>
<defs>
<radialGradient id="paint0_radial_738_317" cx="0" cy="0" r="1" gradientUnits="userSpaceOnUse" gradientTransform="translate(398.076 80.1144) rotate(114.48) scale(655.184 693.75)">
<stop stop-color="#DBD8FC"/>
<stop offset="0.465" stop-color="#A092F3"/>
</radialGradient>
<linearGradient id="paint1_linear_738_317" x1="228.351" y1="469.512" x2="523.351" y2="304.973" gradientUnits="userSpaceOnUse">
<stop/>
<stop offset="1" stop-color="#2D2D2D"/>
</linearGradient>
</defs>
</svg>
