<svg width="456" height="526" viewBox="0 0 456 526" fill="none" xmlns="http://www.w3.org/2000/svg">
<path d="M202.858 14.9279C218.328 5.99626 237.388 5.99625 252.858 14.9279L430.255 117.348C445.725 126.279 455.255 142.786 455.255 160.649V365.493C455.255 383.357 445.724 399.864 430.254 408.795L252.857 511.209C237.388 520.139 218.329 520.139 202.86 511.209L25.4631 408.795C9.99237 399.864 0.461914 383.357 0.461914 365.493V160.649C0.461914 142.786 9.99187 126.279 25.4619 117.348L202.858 14.9279Z" fill="url(#paint0_radial_709_6945)"/>
<path d="M311.72 384.436H106.268V168.029H153.215V342.407H311.72V384.436Z" fill="url(#paint1_linear_709_6945)"/>
<path d="M311.72 210.059C334.932 210.059 353.749 191.242 353.749 168.029C353.749 144.817 334.932 126 311.72 126C288.508 126 269.69 144.817 269.69 168.029C269.69 191.242 288.508 210.059 311.72 210.059Z" fill="url(#paint2_linear_709_6945)"/>
<defs>
<radialGradient id="paint0_radial_709_6945" cx="0" cy="0" r="1" gradientUnits="userSpaceOnUse" gradientTransform="translate(367.708 408.714) rotate(-144.818) scale(449.329 475.777)">
<stop stop-color="white"/>
<stop offset="1" stop-color="white" stop-opacity="0.73"/>
</radialGradient>
<linearGradient id="paint1_linear_709_6945" x1="224.736" y1="291.508" x2="124.09" y2="230.345" gradientUnits="userSpaceOnUse">
<stop/>
<stop offset="1" stop-color="#2D2D2D"/>
</linearGradient>
<linearGradient id="paint2_linear_709_6945" x1="318.161" y1="173.963" x2="278.163" y2="148.36" gradientUnits="userSpaceOnUse">
<stop/>
<stop offset="1" stop-color="#2D2D2D"/>
</linearGradient>
</defs>
</svg>
