<svg width="455" height="526" viewBox="0 0 455 526" fill="none" xmlns="http://www.w3.org/2000/svg">
<path d="M202.529 14.9142C217.999 5.98258 237.059 5.98258 252.529 14.9142L429.925 117.334C445.395 126.266 454.925 142.772 454.925 160.635V365.48C454.925 383.344 445.395 399.85 429.924 408.782L252.528 511.195C237.058 520.126 217.999 520.126 202.53 511.195L25.1335 408.782C9.66278 399.85 0.132324 383.344 0.132324 365.48V160.635C0.132324 142.772 9.66228 126.266 25.1323 117.334L202.529 14.9142Z" fill="url(#paint0_radial_709_1638)"/>
<path fill-rule="evenodd" clip-rule="evenodd" d="M227.125 422.701C274.239 422.701 316.568 402.209 345.684 369.651C332.139 357.881 311.728 357.165 297.31 368.8L294.555 371.023C268.155 392.325 229.687 389.179 207.098 363.871C194.778 350.067 173.679 348.658 159.633 360.7L127.874 387.927C155.075 409.689 189.581 422.701 227.125 422.701ZM278.677 345.709C303.823 325.418 339.167 326.146 363.352 345.743C377.808 321.791 386.125 293.717 386.125 263.702C386.125 230.348 375.856 199.394 358.307 173.828C346.993 171.419 334.731 174.233 325.422 182.482L322.773 184.829C297.384 207.328 258.812 205.96 235.079 181.721C222.136 168.501 200.993 168.067 187.518 180.745L150.559 215.515L130.228 193.904L167.186 159.134C192.429 135.385 232.034 136.199 256.281 160.963C268.949 173.903 289.541 174.633 303.094 162.622L305.744 160.275C313.971 152.984 323.489 148.069 333.456 145.484C305.286 120.131 268.007 104.701 227.125 104.701C146.41 104.701 79.7428 164.844 69.4915 242.76C94.0078 230.995 124.249 235.522 144.238 255.992C156.857 268.915 177.177 270.279 191.41 259.159L212.074 243.015C238.045 222.726 274.756 223.708 299.605 245.357L339.836 280.408L320.345 302.78L280.114 267.729C265.985 255.419 245.109 254.86 230.342 266.397L209.678 282.541C183.527 302.971 146.194 300.465 123.009 276.723C109.527 262.916 87.477 262.434 73.4048 275.639L68.9331 279.835C72.2796 313.044 85.8453 343.238 106.438 367.223L140.321 338.174C166.633 315.615 206.157 318.256 229.235 344.113C241.294 357.624 261.829 359.303 275.922 347.931L278.677 345.709Z" fill="url(#paint1_radial_709_1638)"/>
<defs>
<radialGradient id="paint0_radial_709_1638" cx="0" cy="0" r="1" gradientUnits="userSpaceOnUse" gradientTransform="translate(265.08 151.65) rotate(113.552) scale(787.513 704.013)">
<stop stop-color="#F3E2D0"/>
<stop offset="1" stop-color="#999999"/>
</radialGradient>
<radialGradient id="paint1_radial_709_1638" cx="0" cy="0" r="1" gradientUnits="userSpaceOnUse" gradientTransform="translate(316.095 104.701) rotate(119.406) scale(335.181 701.176)">
<stop offset="0.095" stop-color="#983155"/>
<stop offset="1" stop-color="#E43542"/>
</radialGradient>
</defs>
</svg>
