<svg width="456" height="526" viewBox="0 0 456 526" fill="none" xmlns="http://www.w3.org/2000/svg">
<path d="M253.356 510.767C237.886 519.699 218.826 519.699 203.356 510.767L25.9595 408.348C10.4894 399.416 0.959466 382.91 0.959466 365.046L0.959457 160.202C0.959456 142.338 10.4899 125.831 25.9607 116.9L203.357 14.4867C218.827 5.55596 237.885 5.55597 253.355 14.4867L430.751 116.9C446.222 125.831 455.752 142.338 455.752 160.202L455.752 365.046C455.752 382.91 446.222 399.416 430.752 408.348L253.356 510.767Z" fill="url(#paint0_radial_709_6998)"/>
<path fill-rule="evenodd" clip-rule="evenodd" d="M131.268 368.061C151.52 403.186 187.911 424.229 228.415 424.229C268.92 424.229 305.31 403.186 325.562 368.061C345.814 332.936 345.814 291.008 325.562 255.883L240.124 107.789C234.902 98.7708 221.928 98.7708 216.707 107.789L131.268 255.883C110.858 291.008 110.858 332.936 131.268 368.061ZM204.366 178.197L222.561 146.553C225.093 142.123 231.738 142.123 234.269 146.553L304.361 268.066C317.177 290.375 319.708 316.165 311.639 339.898C310.848 336.101 309.582 332.145 308 328.19C298.349 303.666 276.356 284.837 242.813 272.18C219.713 263.478 204.999 250.504 199.145 233.891C191.55 212.373 199.619 188.956 204.366 178.197ZM173.197 231.992L152.47 268.066C136.648 295.596 136.648 328.348 152.47 355.878C168.292 383.408 196.771 399.705 228.415 399.705C249.459 399.705 269.078 392.427 284.583 379.611C286.64 374.548 292.811 356.036 285.058 336.892C277.938 319.171 260.85 305.09 234.111 294.964C204.049 283.572 184.43 265.693 175.886 241.96C174.779 238.637 173.988 235.315 173.197 231.992Z" fill="url(#paint1_radial_709_6998)"/>
<defs>
<radialGradient id="paint0_radial_709_6998" cx="0" cy="0" r="1" gradientUnits="userSpaceOnUse" gradientTransform="translate(228.356 540.338) rotate(-81.8677) scale(469.474 406.579)">
<stop stop-color="#011828"/>
<stop offset="1" stop-color="#04558E"/>
</radialGradient>
<radialGradient id="paint1_radial_709_6998" cx="0" cy="0" r="1" gradientUnits="userSpaceOnUse" gradientTransform="translate(290.7 163.241) rotate(113.007) scale(283.542 229.357)">
<stop stop-color="white"/>
<stop offset="1" stop-color="white" stop-opacity="0.85"/>
</radialGradient>
</defs>
</svg>
