<svg width="455" height="526" viewBox="0 0 455 526" fill="none" xmlns="http://www.w3.org/2000/svg">
<path d="M252.55 511.043C237.08 519.974 218.02 519.974 202.55 511.043L25.1533 408.623C9.68328 399.691 0.153314 383.185 0.153313 365.322L0.153304 160.477C0.153304 142.613 9.68378 126.107 25.1545 117.175L202.551 14.762C218.02 5.83135 237.079 5.83136 252.549 14.7621L429.945 117.175C445.416 126.107 454.946 142.613 454.946 160.477L454.946 365.322C454.946 383.185 445.416 399.691 429.946 408.623L252.55 511.043Z" fill="url(#paint0_radial_709_6975)"/>
<path d="M321.915 174.713L94.8799 132.934L214.361 433.577L380.838 230.75L321.915 174.713ZM318.262 193.122L352.99 226.13L258.002 243.331L318.262 193.122ZM237.376 239.891L137.256 156.858L300.891 186.967L237.376 239.891ZM230.24 254.575L213.92 389.537L125.898 168.032L230.24 254.575ZM245.351 261.74L350.531 242.691L229.884 389.679L245.351 261.74Z" fill="url(#paint1_linear_709_6975)"/>
<defs>
<radialGradient id="paint0_radial_709_6975" cx="0" cy="0" r="1" gradientUnits="userSpaceOnUse" gradientTransform="translate(148.269 408.453) rotate(-55.6812) scale(427.062 493.126)">
<stop/>
<stop offset="1" stop-color="#242729"/>
</radialGradient>
<linearGradient id="paint1_linear_709_6975" x1="282.204" y1="132.934" x2="28.5354" y2="484.566" gradientUnits="userSpaceOnUse">
<stop stop-color="#FF060A"/>
<stop offset="1" stop-color="#990406"/>
</linearGradient>
</defs>
</svg>
