<svg width="456" height="526" viewBox="0 0 456 526" fill="none" xmlns="http://www.w3.org/2000/svg">
<path d="M203.147 15.2228C218.617 6.29116 237.677 6.29117 253.147 15.2228L430.545 117.644C446.015 126.575 455.545 143.082 455.545 160.945V365.791C455.545 383.655 446.014 400.161 430.544 409.093L253.146 511.507C237.676 520.438 218.618 520.438 203.148 511.507L25.7502 409.093C10.2794 400.161 0.748971 383.655 0.748971 365.791V160.945C0.748971 143.082 10.2789 126.575 25.749 117.644L203.147 15.2228Z" fill="url(#paint0_linear_734_187)"/>
<path fill-rule="evenodd" clip-rule="evenodd" d="M406.028 263.374L305.114 174.477V239.614L204.908 304.793L305.114 304.836V352.309L406.028 263.374Z" fill="url(#paint1_radial_734_187)"/>
<path fill-rule="evenodd" clip-rule="evenodd" d="M50.2686 263.353L151.181 352.292V287.812L250.684 222.591L151.228 222.551V174.418L50.2686 263.353Z" fill="url(#paint2_radial_734_187)"/>
<defs>
<linearGradient id="paint0_linear_734_187" x1="196.044" y1="303.603" x2="364.425" y2="75.7936" gradientUnits="userSpaceOnUse">
<stop/>
<stop offset="1" stop-color="#2D2D2D"/>
</linearGradient>
<radialGradient id="paint1_radial_734_187" cx="0" cy="0" r="1" gradientUnits="userSpaceOnUse" gradientTransform="translate(361.247 208.709) rotate(124.624) scale(174.505 183.456)">
<stop stop-color="white"/>
<stop offset="1" stop-color="#D8D8D8" stop-opacity="0.85"/>
</radialGradient>
<radialGradient id="paint2_radial_734_187" cx="0" cy="0" r="1" gradientUnits="userSpaceOnUse" gradientTransform="translate(206.06 208.658) rotate(124.524) scale(174.335 183.034)">
<stop stop-color="white"/>
<stop offset="1" stop-color="#D8D8D8" stop-opacity="0.85"/>
</radialGradient>
</defs>
</svg>
