<svg width="456" height="526" viewBox="0 0 456 526" fill="none" xmlns="http://www.w3.org/2000/svg">
<path d="M202.688 14.715C218.159 5.78336 237.218 5.78336 252.688 14.715L430.085 117.135C445.555 126.066 455.085 142.573 455.085 160.436V365.281C455.085 383.144 445.554 399.651 430.084 408.583L252.687 510.996C237.218 519.926 218.159 519.926 202.69 510.996L25.2932 408.582C9.82245 399.651 0.291992 383.144 0.291992 365.281V160.436C0.291992 142.573 9.82194 126.066 25.292 117.135L202.688 14.715Z" fill="url(#paint0_radial_735_228)"/>
<path d="M227.688 422.355C185.386 422.355 144.817 405.551 114.905 375.639C84.9929 345.727 68.1885 305.157 68.1885 262.855C68.1885 220.553 84.9929 179.984 114.905 150.072C144.817 120.16 185.386 103.355 227.688 103.355C269.99 103.355 310.56 120.16 340.472 150.072C370.384 179.984 387.188 220.553 387.188 262.855C387.188 305.157 370.384 345.727 340.472 375.639C310.56 405.551 269.99 422.355 227.688 422.355Z" fill="url(#paint1_radial_735_228)"/>
<defs>
<radialGradient id="paint0_radial_735_228" cx="0" cy="0" r="1" gradientUnits="userSpaceOnUse" gradientTransform="translate(367.538 408.501) rotate(-144.818) scale(449.329 475.777)">
<stop stop-color="white"/>
<stop offset="1" stop-color="white" stop-opacity="0.85"/>
</radialGradient>
<radialGradient id="paint1_radial_735_228" cx="0" cy="0" r="1" gradientUnits="userSpaceOnUse" gradientTransform="translate(300.084 189.113) rotate(180) scale(269.431)">
<stop offset="0.007" stop-color="#F2CEFE"/>
<stop offset="0.191" stop-color="#AFBAF1"/>
<stop offset="0.498" stop-color="#4281D3"/>
<stop offset="0.667" stop-color="#2E427D"/>
<stop offset="0.823" stop-color="#230101"/>
<stop offset="1" stop-color="#8F6B40"/>
</radialGradient>
</defs>
</svg>
